<?xml version="1.0" encoding="UTF-8" standalone="no"?>
<!-- Created with Inkscape (http://www.inkscape.org/) -->

<svg
   width="106.5467mm"
   height="29.439102mm"
   viewBox="0 0 106.5467 29.439102"
   version="1.1"
   id="svg1"
   xml:space="preserve"
   inkscape:version="1.3.2 (091e20e, 2023-11-25, custom)"
   sodipodi:docname="logo.svg"
   xmlns:inkscape="http://www.inkscape.org/namespaces/inkscape"
   xmlns:sodipodi="http://sodipodi.sourceforge.net/DTD/sodipodi-0.dtd"
   xmlns="http://www.w3.org/2000/svg"
   xmlns:svg="http://www.w3.org/2000/svg"><sodipodi:namedview
     id="namedview1"
     pagecolor="#ffffff"
     bordercolor="#000000"
     borderopacity="0.25"
     inkscape:showpageshadow="2"
     inkscape:pageopacity="0.0"
     inkscape:pagecheckerboard="0"
     inkscape:deskcolor="#d1d1d1"
     inkscape:document-units="mm"
     inkscape:zoom="1.3843855"
     inkscape:cx="288.57568"
     inkscape:cy="51.647463"
     inkscape:window-width="1920"
     inkscape:window-height="991"
     inkscape:window-x="-9"
     inkscape:window-y="-9"
     inkscape:window-maximized="1"
     inkscape:current-layer="layer1" /><defs
     id="defs1" /><g
     inkscape:label="Layer 1"
     inkscape:groupmode="layer"
     id="layer1"
     transform="translate(-47.524473,-121.08726)"><path
       style="fill:#000000"
       d="m 99.911971,150.40865 c 0,-0.0647 0.405829,-1.00816 0.901839,-2.09659 0.49601,-1.08843 0.9805,-2.22678 1.07663,-2.52967 0.11926,-0.37574 -0.54557,-2.31059 -2.092464,-6.08969 -1.24699,-3.04643 -2.267255,-5.60561 -2.267255,-5.68707 0,-0.0814 0.70117,-0.1481 1.558156,-0.1481 h 1.558153 l 1.41841,3.83396 c 0.78012,2.10868 1.48958,3.83509 1.57657,3.83646 0.087,0.001 0.80137,-1.72252 1.5875,-3.83088 l 1.42934,-3.83338 1.52135,-0.003 c 0.83674,-0.002 1.52135,0.0466 1.52135,0.10743 0,0.0996 -4.88028,11.76491 -6.34619,15.16918 l -0.59814,1.38906 h -1.42262 c -0.78245,0 -1.422629,-0.0529 -1.422629,-0.11763 z m -49.080207,-4.9641 c -1.580803,-0.55257 -3.307291,-2.29896 -3.307291,-3.3454 0,-0.13824 0.619209,-0.39988 1.376019,-0.58144 1.13101,-0.27132 1.396886,-0.2675 1.493207,0.0215 0.389331,1.168 2.67343,2.12437 4.064928,1.70203 1.713672,-0.52012 2.386364,-2.46407 1.22658,-3.54457 -0.313783,-0.29233 -1.534174,-0.8463 -2.711979,-1.23105 -4.159511,-1.35875 -5.184172,-2.33765 -5.184172,-4.95265 0,-2.81879 2.127049,-4.51127 5.655649,-4.50015 2.187089,0.007 3.3918,0.4432 4.572759,1.65614 1.350601,1.38717 1.310253,1.77416 -0.223336,2.14206 -1.276071,0.30612 -1.33433,0.29384 -2.104238,-0.44378 -0.672113,-0.64393 -1.008107,-0.75862 -2.222316,-0.75862 -1.084475,0 -1.553572,0.12799 -1.939351,0.52916 -1.466139,1.52463 -0.705831,2.69362 2.415257,3.71351 4.099139,1.33949 5.487242,2.59564 5.487242,4.9656 0,3.23531 -2.027434,4.94906 -5.820833,4.92024 -1.091406,-0.008 -2.341562,-0.13994 -2.778125,-0.29254 z m 14.174016,-0.1442 c -1.733584,-0.88397 -1.992101,-1.54713 -2.095899,-5.37646 l -0.09272,-3.42052 h -0.76718 c -0.744226,0 -0.767179,-0.0396 -0.767179,-1.32292 0,-1.29352 0.01764,-1.32292 0.79375,-1.32292 h 0.79375 v -1.71979 -1.71979 h 1.455208 1.455208 v 1.71979 1.71979 h 1.322917 1.322916 v 1.32292 1.32292 h -1.322916 -1.322917 v 2.71925 c 0,3.22416 0.298909,3.89533 1.734795,3.89533 h 0.911038 v 1.32292 1.32291 l -1.25677,-4.1e-4 c -0.691224,-2.2e-4 -1.665026,-0.20858 -2.164005,-0.46302 z m 7.668414,-0.1096 c -1.764164,-1.19849 -1.98749,-1.93541 -2.091504,-6.90145 l -0.09282,-4.43177 h 1.481886 1.481887 v 3.5324 c 0,4.79256 0.382514,5.72802 2.342216,5.72802 2.089904,0 2.420283,-0.75666 2.420283,-5.54311 v -3.71731 h 1.455209 1.455208 v 5.95313 5.95312 h -1.322917 c -0.975456,0 -1.322916,-0.10013 -1.322916,-0.38126 0,-0.63488 -0.530999,-0.75743 -1.089982,-0.25155 -0.353033,0.31949 -1.069385,0.51072 -2.16614,0.57826 -1.383577,0.0852 -1.7806,0.004 -2.550406,-0.51848 z m 13.699177,0.0368 c -1.762012,-0.93078 -2.678801,-2.82472 -2.678801,-5.53398 0,-3.12481 1.468446,-5.2286 4.054017,-5.80804 1.318471,-0.29547 2.809384,-0.0589 3.825673,0.60697 0.355397,0.23286 0.709897,0.42339 0.787777,0.42339 0.07788,0 0.141601,-1.42875 0.141601,-3.175 v -3.175 h 1.455208 1.455209 v 8.59896 8.59895 h -1.322917 c -1.234722,0 -1.322917,-0.0441 -1.322917,-0.66145 0,-0.36381 -0.04738,-0.66146 -0.105284,-0.66146 -0.05791,0 -0.623454,0.29622 -1.256771,0.65827 -1.452801,0.83052 -3.59992,0.8853 -5.032795,0.12839 z m 4.868147,-2.62978 c 1.570744,-1.23555 1.689274,-4.05043 0.225625,-5.3582 -2.381205,-2.1276 -5.532229,0.48673 -4.54762,3.77306 0.581752,1.94172 2.82346,2.76389 4.321995,1.58514 z m 20.576702,-5.16834 v -8.33438 h 1.5875 1.5875 v 3.43959 3.43958 h 3.83646 3.83646 v -3.43958 -3.43959 h 1.45521 1.4552 v 8.33438 8.33437 h -1.4552 -1.45521 v -3.57187 -3.57188 h -3.83646 -3.83646 v 3.57188 3.57187 h -1.5875 -1.5875 z m 18.86746,7.78483 c -1.60426,-1.02761 -1.93413,-2.2342 -1.93413,-7.07462 v -4.28209 h 1.45521 1.45521 v 3.93307 c 0,3.57835 0.0495,3.99595 0.54837,4.63021 0.44243,0.56246 0.77097,0.69714 1.70059,0.69714 0.92962,0 1.25816,-0.13468 1.70059,-0.69714 0.49891,-0.63426 0.54837,-1.05186 0.54837,-4.63021 v -3.93307 h 1.4552 1.45521 v 5.95313 5.95312 h -1.32291 c -1.14653,0 -1.32292,-0.0705 -1.32292,-0.52916 0,-0.65398 -0.047,-0.65402 -1.11808,-9.9e-4 -1.18789,0.72425 -3.47475,0.71466 -4.62071,-0.0194 z m 11.55962,-8.04941 v -8.59896 h 1.45521 1.45521 v 3.31104 3.31105 l 1.04518,-0.69167 c 0.83078,-0.54978 1.36574,-0.69167 2.60781,-0.69167 2.6215,0 4.18843,1.24438 4.97531,3.95116 0.77172,2.65462 -0.0577,5.70889 -1.94027,7.14479 -0.72606,0.55379 -1.29999,0.7334 -2.61001,0.81682 -1.4505,0.0924 -1.84175,0.0117 -2.87182,-0.59195 l -1.19253,-0.69887 -0.16781,0.66861 c -0.15086,0.60109 -0.2985,0.6686 -1.46204,0.6686 h -1.29424 z m 7.37741,5.52167 c 0.73739,-0.51649 1.35384,-1.88832 1.35384,-3.01277 0,-2.70095 -2.97147,-4.20835 -4.76339,-2.41642 -1.38962,1.38962 -1.29838,4.15813 0.17523,5.31728 0.83849,0.65956 2.37647,0.71277 3.23432,0.11191 z"
       id="path1" /><rect
       style="fill:#e76a28;fill-opacity:1;stroke-width:0.264583"
       id="rect1"
       width="33.244938"
       height="4.1894026"
       x="47.569992"
       y="121.08726" /></g></svg>
